<svg xmlns="http://www.w3.org/2000/svg" id="Layer_1" viewBox="0 0 1000 933.923"><g id="PrimaryLogo_Color"><polygon points="0 -.002 0 96.451 135.301 96.451 135.301 521.067 238.944 400.141 238.944 96.451 374.245 96.451 374.245 -.002 0 -.002" style="fill:#fff;"></polygon><path d="m896.396,634.558l-133.869-28.761c-15.812-3.617-24.472-8.661-24.472-24.467v-48.94c0-15.856,8.66-24.472,24.472-24.472h103.643c15.806,0,24.467,8.616,24.467,24.472v40.273h100.742v-60.463c0-60.418-41.755-102.168-102.173-102.168h-112.892l-23.457,27.369-118.401,138.163v24.473c0,57.561,47.469,91.366,103.599,103.599l133.875,28.8c15.806,3.617,24.467,8.622,24.467,24.473v54.698c0,15.812-8.661,24.473-24.467,24.473h-112.265c-15.845,0-24.467-8.661-24.467-24.473v-46.082h-100.742v66.222c0,60.463,41.71,102.173,102.168,102.173h161.205c60.463,0,102.173-41.71,102.173-102.173v-93.551c0-57.556-47.469-91.404-103.605-103.638" style="fill:#fff;"></path><polygon points="720.943 410.035 305.62 894.608 444.078 548.487 167.163 548.487 582.491 63.963 444.078 410.035 720.943 410.035" style="fill:#fff;"></polygon></g></svg>